HIERARCHY
ROOT joint_Root
{
	OFFSET 0.0 0.0 0.0
	CHANNELS 6 Xposition Yposition Zposition Zrotation Xrotation Yrotation 
	JOINT Hips
	{
		OFFSET -0.726466 93.3139 -2.00062
		CHANNELS 6 Xposition Yposition Zposition Zrotation Xrotation Yrotation 
		JOINT Spine
		{
			OFFSET 15.7357 0.0 0.0
			CHANNELS 6 Xposition Yposition Zposition Zrotation Xrotation Yrotation 
			JOINT Chest
			{
				OFFSET 8.98455 -0.406207 0.0
				CHANNELS 6 Xposition Yposition Zposition Zrotation Xrotation Yrotation 
				JOINT Neck
				{
					OFFSET 16.3773 0.0 0.0
					CHANNELS 6 Xposition Yposition Zposition Zrotation Xrotation Yrotation 
					JOINT Head
					{
						OFFSET 6.45672 0.0 0.0
						CHANNELS 6 Xposition Yposition Zposition Zrotation Xrotation Yrotation 
						End Site
						{
							OFFSET 0.0 0.0 0.0
						}
					}
				}
				JOINT Shoulder_L
				{
					OFFSET 12.9942 -0.242716 4.98039
					CHANNELS 6 Xposition Yposition Zposition Zrotation Xrotation Yrotation 
					JOINT UpperArm_L
					{
						OFFSET 5.34809 0.0 0.0
						CHANNELS 6 Xposition Yposition Zposition Zrotation Xrotation Yrotation 
						JOINT LowerArm_L
						{
							OFFSET 24.3286 1.87007e-05 0.0
							CHANNELS 6 Xposition Yposition Zposition Zrotation Xrotation Yrotation 
							JOINT Hand_L
							{
								OFFSET 22.2916 0.0 0.0
								CHANNELS 6 Xposition Yposition Zposition Zrotation Xrotation Yrotation 
								End Site
								{
									OFFSET 0.0 0.0 0.0
								}
							}
						}
					}
				}
				JOINT Shoulder_R
				{
					OFFSET 12.9945 -0.242716 -4.98039
					CHANNELS 6 Xposition Yposition Zposition Zrotation Xrotation Yrotation 
					JOINT UpperArm_R
					{
						OFFSET -5.34813 0.0 0.0
						CHANNELS 6 Xposition Yposition Zposition Zrotation Xrotation Yrotation 
						JOINT LowerArm_R
						{
							OFFSET -24.3289 0.000322201 0.0
							CHANNELS 6 Xposition Yposition Zposition Zrotation Xrotation Yrotation 
							JOINT Hand_R
							{
								OFFSET -22.2915 -0.000108084 0.0
								CHANNELS 6 Xposition Yposition Zposition Zrotation Xrotation Yrotation 
								End Site
								{
									OFFSET 0.0 0.0 0.0
								}
							}
						}
					}
				}
			}
		}
		JOINT UpperLeg_L
		{
			OFFSET -2.19248 -6.46944 0.0
			CHANNELS 6 Xposition Yposition Zposition Zrotation Xrotation Yrotation 
			JOINT LowerLeg_L
			{
				OFFSET 39.0811 0.0 -1.23785e-05
				CHANNELS 6 Xposition Yposition Zposition Zrotation Xrotation Yrotation 
				JOINT Foot_L
				{
					OFFSET 40.9854 0.0 -1.26872e-05
					CHANNELS 6 Xposition Yposition Zposition Zrotation Xrotation Yrotation 
					JOINT Toes_L
					{
						OFFSET 11.7543 0.0 0.0
						CHANNELS 6 Xposition Yposition Zposition Zrotation Xrotation Yrotation 
						End Site
						{
							OFFSET 0.0 0.0 0.0
						}
					}
				}
			}
		}
		JOINT UpperLeg_R
		{
			OFFSET -2.19251 6.46944 0.0
			CHANNELS 6 Xposition Yposition Zposition Zrotation Xrotation Yrotation 
			JOINT LowerLeg_R
			{
				OFFSET -39.0811 -0.00228153 -0.0401928
				CHANNELS 6 Xposition Yposition Zposition Zrotation Xrotation Yrotation 
				JOINT Foot_R
				{
					OFFSET -40.9854 0.0 0.0
					CHANNELS 6 Xposition Yposition Zposition Zrotation Xrotation Yrotation 
					JOINT Toes_R
					{
						OFFSET -11.7543 0.0 0.0
						CHANNELS 6 Xposition Yposition Zposition Zrotation Xrotation Yrotation 
						End Site
						{
							OFFSET 0.0 0.0 0.0
						}
					}
				}
			}
		}
	}
}
MOTION
Frames:	6
Frame Time:	0.0333333
0.000000 0.000000 0.000000 0.000000 0.000000 -0.000000 -0.613965 92.449200 -0.715631 88.126700 0.117298 4.322620 15.735700 0.000005 -0.000001 79.299800 86.403200 -78.927300 8.984550 -0.406207 -0.000000 -0.692913 -1.362840 0.736514 16.377300 -0.000001 -0.000001 1.503000 -2.918160 0.025757 6.456720 -0.000001 -0.000000 3.527860 -3.819160 0.239778 12.994200 -0.242716 4.980390 -84.976100 -10.331900 -63.888100 5.348090 -0.000007 -0.000001 -67.620000 -44.872500 -98.319100 24.328600 0.000019 0.000005 -6.003850 -5.984630 -45.251000 22.291600 -0.000001 0.000005 31.541900 5.317890 -0.454359 12.994500 -0.242716 -4.980390 92.514400 -6.098920 -67.544200 -5.348130 -0.000001 -0.000004 -63.780400 -41.984200 -104.078000 -24.328900 0.000322 -0.000009 -0.637733 -0.880065 -35.933300 -22.291500 -0.000108 -0.000004 33.717500 5.014390 6.997860 -2.192480 -6.469440 -0.000000 -175.385000 -8.258810 -2.238630 39.081100 -0.000007 -0.000012 -0.098974 0.244703 22.021800 40.985400 -0.000006 -0.000013 -0.059337 4.275340 -65.629500 11.754300 -0.000000 0.000003 -0.000056 -0.000627 -16.601800 -2.192510 6.469440 -0.000001 179.685000 15.448100 -179.247000 -39.081100 -0.002282 -0.040193 -0.001924 0.015694 18.489600 -40.985400 0.000008 0.000006 4.400050 7.105180 -65.530800 -11.754300 -0.000006 -0.000006 -0.008732 -0.093902 -20.397600
0.000000 0.000000 0.000000 0.000000 0.000000 -0.000000 -0.611108 92.425800 -0.660116 88.083900 -0.063113 4.512060 15.735700 0.000005 -0.000001 79.186200 86.398100 -78.781900 8.984550 -0.406207 -0.000000 -0.685071 -1.381090 0.800000 16.377300 -0.000001 -0.000001 1.598680 -2.847450 -0.081450 6.456720 -0.000001 -0.000000 3.873420 -3.756550 0.127425 12.994200 -0.242716 4.980390 -85.079300 -10.161200 -63.987300 5.348090 -0.000007 -0.000001 -64.049100 -44.311800 -99.296000 24.328600 0.000019 0.000005 -5.007310 -4.311140 -49.388600 22.291600 -0.000001 0.000005 30.253400 5.408090 -3.211630 12.994500 -0.242716 -4.980390 92.524200 -6.157660 -67.658000 -5.348130 -0.000001 -0.000004 -60.044900 -41.351900 -104.940000 -24.328900 0.000322 -0.000009 0.533818 0.620930 -40.643300 -22.291500 -0.000108 -0.000004 32.279400 5.166900 3.521300 -2.192480 -6.469440 -0.000000 -175.293000 -8.372300 -2.053890 39.081100 -0.000007 -0.000012 -0.100917 0.247566 22.177700 40.985400 -0.000006 -0.000013 -0.064988 4.248040 -65.765200 11.754300 -0.000000 0.000003 -0.000065 -0.000713 -16.605100 -2.192510 6.469440 -0.000001 179.660000 15.366800 -179.080000 -39.081100 -0.002282 -0.040193 -0.002286 0.016657 18.613200 -40.985400 0.000008 0.000006 4.410000 7.200970 -65.625400 -11.754300 -0.000006 -0.000006 -0.008735 -0.093929 -20.398700
0.000000 0.000000 0.000000 0.000000 0.000000 -0.000000 -0.591847 92.407600 -0.621098 88.081600 -0.246369 4.666880 15.735700 0.000005 -0.000001 79.227800 86.380900 -78.821100 8.984550 -0.406207 -0.000000 -0.650349 -1.382410 0.805106 16.377300 -0.000001 -0.000001 1.513780 -2.843220 -0.143736 6.456720 -0.000001 -0.000000 4.186140 -3.741470 0.123443 12.994200 -0.242716 4.980390 -85.163500 -10.027900 -64.083500 5.348090 -0.000007 -0.000001 -60.483300 -43.901300 -100.168000 24.328600 0.000019 0.000005 -2.820630 -2.037460 -54.216100 22.291600 -0.000001 0.000005 30.065200 5.499200 -6.506980 12.994500 -0.242716 -4.980390 92.489300 -6.114450 -67.797000 -5.348130 -0.000001 -0.000004 -56.478000 -40.849000 -105.813000 -24.328900 0.000322 -0.000009 2.804520 2.684620 -46.256700 -22.291500 -0.000108 -0.000004 31.411100 5.302430 -0.014663 -2.192480 -6.469440 -0.000000 -175.275000 -8.425530 -1.888210 39.081100 -0.000007 -0.000012 -0.101409 0.247569 22.275100 40.985400 -0.000006 -0.000013 -0.072332 4.144400 -65.861400 11.754300 -0.000000 0.000003 -0.000057 -0.000636 -16.602200 -2.192510 6.469440 -0.000001 179.589000 15.248900 -178.947000 -39.081100 -0.002282 -0.040193 -0.005107 0.024883 18.716200 -40.985400 0.000008 0.000006 4.289420 7.284360 -65.679200 -11.754300 -0.000006 -0.000006 -0.008658 -0.093318 -20.373800
0.000000 0.000000 0.000000 0.000000 0.000000 -0.000000 -0.580269 92.396100 -0.592142 88.069500 -0.432931 4.759090 15.735700 0.000005 -0.000001 79.388400 86.358400 -78.957800 8.984550 -0.406207 -0.000000 -0.602119 -1.372330 0.853553 16.377300 -0.000001 -0.000001 1.361540 -2.803300 -0.266182 6.456720 -0.000001 -0.000000 4.176810 -3.796210 0.118494 12.994200 -0.242716 4.980390 -85.195300 -9.936980 -64.029600 5.348090 -0.000007 -0.000001 -57.390500 -43.501300 -100.946000 24.328600 0.000019 0.000005 -0.469323 -0.290887 -58.314500 22.291600 -0.000001 0.000005 30.953500 5.626840 -13.044100 12.994500 -0.242716 -4.980390 92.474000 -6.088040 -67.834500 -5.348130 -0.000001 -0.000004 -53.430500 -40.610800 -107.017000 -24.328900 0.000322 -0.000009 5.907620 4.760940 -51.263200 -22.291500 -0.000108 -0.000004 31.451900 5.472870 -5.450880 -2.192480 -6.469440 -0.000000 -175.247000 -8.489270 -1.764630 39.081100 -0.000007 -0.000012 -0.102981 0.250713 22.330600 40.985400 -0.000006 -0.000013 -0.089429 4.037350 -65.935200 11.754300 -0.000000 0.000003 -0.000069 -0.000751 -16.606600 -2.192510 6.469440 -0.000001 179.552000 15.159100 -178.860000 -39.081100 -0.002282 -0.040193 -0.006891 0.030059 18.768500 -40.985400 0.000008 0.000006 4.215400 7.407840 -65.710100 -11.754300 -0.000006 -0.000006 -0.008664 -0.093365 -20.375700
0.000000 0.000000 0.000000 0.000000 0.000000 -0.000000 -0.569450 92.388100 -0.572035 88.052800 -0.536492 4.758080 15.735700 0.000005 -0.000001 79.536500 86.372400 -79.079900 8.984550 -0.406207 -0.000000 -0.625790 -1.350780 0.905400 16.377300 -0.000001 -0.000001 1.276930 -2.787240 -0.348627 6.456720 -0.000001 -0.000000 4.113030 -3.821940 0.025294 12.994200 -0.242716 4.980390 -85.177700 -9.947100 -63.969500 5.348090 -0.000007 -0.000001 -55.128100 -42.924800 -101.824000 24.328600 0.000019 0.000005 4.043440 2.324090 -60.153200 22.291600 -0.000001 0.000005 35.029000 5.687600 -22.236500 12.994500 -0.242716 -4.980390 92.497800 -6.105730 -67.700000 -5.348130 -0.000001 -0.000004 -50.497800 -40.520100 -108.072000 -24.328900 0.000322 -0.000009 7.512840 5.612320 -53.444800 -22.291500 -0.000108 -0.000004 34.424900 5.630710 -13.185100 -2.192480 -6.469440 -0.000000 -175.245000 -8.498140 -1.765130 39.081100 -0.000007 -0.000012 -0.103464 0.251188 22.386800 40.985400 -0.000006 -0.000013 -0.099687 3.928520 -65.986600 11.754300 -0.000000 0.000003 -0.000063 -0.000694 -16.604400 -2.192510 6.469440 -0.000001 179.543000 15.140900 -178.875000 -39.081100 -0.002282 -0.040193 -0.009483 0.037603 18.807900 -40.985400 0.000008 0.000006 4.164630 7.489360 -65.725000 -11.754300 -0.000006 -0.000006 -0.008779 -0.094273 -20.412800
0.000000 0.000000 0.000000 0.000000 0.000000 -0.000000 -0.555034 92.392000 -0.552610 88.060400 -0.539485 4.822810 15.735700 0.000005 -0.000001 79.273800 86.389000 -78.829100 8.984550 -0.406207 -0.000000 -0.664714 -1.376540 0.881035 16.377300 -0.000001 -0.000001 1.345940 -2.791790 -0.352418 6.456720 -0.000001 -0.000000 4.164650 -3.770990 0.114578 12.994200 -0.242716 4.980390 -85.186800 -9.918550 -63.948100 5.348090 -0.000007 -0.000001 -52.831900 -42.692700 -102.018000 24.328600 0.000019 0.000005 11.485000 6.666380 -60.261700 22.291600 -0.000001 0.000005 43.085400 5.648350 -27.466500 12.994500 -0.242716 -4.980390 92.551300 -6.260370 -67.774000 -5.348130 -0.000001 -0.000004 -48.830400 -40.350800 -108.625000 -24.328900 0.000322 -0.000009 9.063480 6.816960 -53.352100 -22.291500 -0.000108 -0.000004 37.599600 5.676600 -18.494400 -2.192480 -6.469440 -0.000000 -175.251000 -8.495180 -1.661300 39.081100 -0.000007 -0.000012 -0.103213 0.251157 22.340300 40.985400 -0.000006 -0.000013 -0.094454 3.919110 -65.979500 11.754300 -0.000000 0.000003 -0.000063 -0.000695 -16.604500 -2.192510 6.469440 -0.000001 179.500000 15.166900 -178.759000 -39.081100 -0.002282 -0.040193 -0.007482 0.031808 18.762900 -40.985400 0.000008 0.000006 4.201690 7.519390 -65.734400 -11.754300 -0.000006 -0.000006 -0.008733 -0.093912 -20.398100
